<?xml version="1.0" encoding="iso-8859-1"?>
<!-- Generator: Adobe Illustrator 18.0.0, SVG Export Plug-In . SVG Version: 6.00 Build 0)  -->
<!DOCTYPE svg PUBLIC "-//W3C//DTD SVG 1.1//EN" "http://www.w3.org/Graphics/SVG/1.1/DTD/svg11.dtd">
<svg version="1.1" id="Capa_1" xmlns="http://www.w3.org/2000/svg" xmlns:xlink="http://www.w3.org/1999/xlink" x="0px" y="0px"
	 viewBox="0 0 297 297" style="enable-background:new 0 0 297 297;" xml:space="preserve">
<g>
	<path d="M15.727,211.104c-3.911,3.911-3.911,10.253,0,14.164l63.454,63.454C84.522,294.063,91.67,297,99.131,297
		c0.935,0,1.874-0.046,2.816-0.139c8.458-0.838,16.013-5.374,20.727-12.447l27.251-40.876c1.741-2.611,2.103-5.79,1.192-8.622
		l4.351-2.441c2.352-1.319,4.073-3.532,4.772-6.135l3.445-12.818l11.575-6.493c2.352-1.319,4.072-3.532,4.772-6.135l3.446-12.82
		l11.579-6.497c2.351-1.319,4.071-3.531,4.771-6.134l3.446-12.82l11.578-6.496c2.352-1.318,4.073-3.531,4.772-6.134l3.446-12.821
		l11.581-6.498c2.351-1.319,4.072-3.531,4.771-6.135l3.446-12.82l11.58-6.498c2.351-1.319,4.071-3.53,4.771-6.133l3.449-12.826
		l11.584-6.501c2.35-1.319,4.07-3.53,4.77-6.132l4.106-15.267c1.906-3.759,1.288-8.469-1.853-11.611L237.462,2.933
		C235.583,1.055,233.036,0,230.38,0s-5.203,1.055-7.082,2.933L15.727,211.104z M106.008,273.304
		c-1.88,2.819-4.588,3.481-6.035,3.624c-1.447,0.147-4.233,0.026-6.628-2.37l-56.372-56.372l35.329-35.329l56.402,56.403
		L106.008,273.304z M260.773,64.352l-11.585,6.502c-2.35,1.319-4.07,3.531-4.77,6.133l-3.449,12.825l-11.581,6.499
		c-2.351,1.319-4.072,3.531-4.771,6.135l-3.445,12.819l-11.581,6.498c-2.351,1.319-4.072,3.531-4.771,6.134l-3.446,12.821
		l-11.578,6.495c-2.352,1.319-4.072,3.532-4.772,6.135l-3.446,12.82L170,172.668c-2.351,1.319-4.072,3.531-4.771,6.134l-3.446,12.82
		l-11.575,6.493c-2.352,1.319-4.073,3.532-4.772,6.135l-3.445,12.818l-4.579,2.569l-51.245-51.246L230.38,24.179l32.465,32.466
		L260.773,64.352z"/>
	<path d="M66.446,198.83l-14.998,14.997c-1.315,1.315-2.054,3.098-2.054,4.958c0,1.859,0.738,3.642,2.053,4.957l42.294,42.295
		c1.319,1.319,3.105,2.054,4.958,2.054c0.161,0,0.325-0.006,0.487-0.017c2.025-0.141,3.888-1.152,5.109-2.772l12.899-17.098
		c2.106-2.791,1.833-6.707-0.639-9.18L76.36,198.83C73.623,196.095,69.184,196.093,66.446,198.83z M102.327,244.627l-4.372,5.796
		l-31.637-31.638l5.084-5.083L102.327,244.627z"/>
</g>
<g>
</g>
<g>
</g>
<g>
</g>
<g>
</g>
<g>
</g>
<g>
</g>
<g>
</g>
<g>
</g>
<g>
</g>
<g>
</g>
<g>
</g>
<g>
</g>
<g>
</g>
<g>
</g>
<g>
</g>
</svg>
